<svg version="1.2" xmlns="http://www.w3.org/2000/svg" viewBox="0 0 450 268" width="450" height="268">
	<style>
		.s0 { fill: #000000 } 
	</style>
	<g>
		<path id="Заповнення суцільним кольором 1" fill-rule="evenodd" class="s0" d="m238.5 6.21c63.25-0.12 119.95 0.16 126 0.62 9.06 0.69 12.15 1.37 17.5 3.86 3.57 1.67 8.21 4.79 10.31 6.92 2.1 2.14 4.96 6.37 6.37 9.39 1.68 3.6 5.02 17.34 16.82 74.15l8.5 2.96c4.68 1.64 10.41 4.08 12.75 5.43 2.34 1.35 5.38 4.15 6.76 6.21 1.38 2.06 3.14 5.78 3.91 8.25 1.07 3.41 1.56 14.76 2.68 89.5l-2.3 2.13c-1.27 1.16-3.43 2.72-4.8 3.45-1.52 0.81-7.68 1.54-29.03 2.42l-2.48 6.5c-1.36 3.57-4.51 9.09-6.99 12.25-2.47 3.16-6.86 7.32-9.75 9.23-2.89 1.92-7.95 4.48-11.25 5.7-4.73 1.74-8.23 2.22-16.5 2.27-7.86 0.04-12.01-0.44-16.5-1.92-3.3-1.08-8.7-3.78-12-6-3.33-2.24-8.03-6.7-10.56-10.03-2.5-3.3-5.38-8.48-6.4-11.5-1.01-3.03-2.33-5.83-2.94-6.23-0.6-0.41-26.53-0.74-114.1-0.75l-2.25 7.49c-1.55 5.17-3.72 9.42-7 13.74-2.71 3.56-7.33 7.98-10.75 10.28-3.3 2.22-8.7 4.92-12 6-4.49 1.48-8.64 1.96-16.5 1.92-8.28-0.05-11.77-0.53-16.5-2.27-3.3-1.22-7.57-3.29-13-6.96l-48.83-0.86c-44.38-0.78-49.01-1.02-50.75-2.61-1.33-1.21-1.91-3.06-1.89-6 0.02-2.34 0.72-5.15 1.55-6.25 1.13-1.49 3.24-2.18 8.22-2.7 3.69-0.38 22.45-0.73 76.7-0.86l-3-10.82-25-0.31c-21.36-0.27-25.36-0.55-27.5-1.98-1.38-0.92-3.06-2.83-5-6.83h-29l-2.03-2.75c-1.15-1.54-2.04-4.29-2.03-6.25 0.01-2.46 0.79-4.25 2.61-6 2.48-2.38 3.32-2.52 17.31-3 13.37-0.45 14.95-0.7 17.42-2.75 2.3-1.9 2.72-3.03 2.72-12.25l-25.25 0.03c-23.15 0.04-25.46-0.12-27.75-1.83-1.38-1.03-2.86-3.19-3.29-4.79-0.45-1.65-0.34-4.31 0.25-6.16 0.57-1.79 1.94-3.7 3.04-4.25 1.18-0.59 12.5-1 53-1v-16l-15.25 0.01c-8.39 0.01-16.79-0.33-18.68-0.75-2.59-0.57-3.74-1.55-4.75-4.01-0.72-1.79-1.32-4.15-1.32-5.25 0-1.1 1.32-3.35 5.85-8h34.15l0.01-15.5-47.51-1.6-2.37-2.7c-1.95-2.21-2.27-3.43-1.81-6.7 0.35-2.52 1.42-4.66 2.87-5.79 2.07-1.61 4.69-1.79 48.81-1.71l-0.01-4.25c-0.01-2.34-0.34-5.95-1.49-11.79l-20.5 0.03c-11.28 0.01-23.99-0.32-36.02-1.49l0.01-7.75c0.01-5.99 0.35-7.86 1.51-8.25 0.82-0.28 13.76-0.49 56-0.46l1.69-5.77c0.92-3.17 1.94-6.45 2.26-7.27 0.49-1.28-1.83-1.61-15.68-2.24-15.04-0.68-16.44-0.91-18.55-3-1.57-1.56-2.26-3.41-2.25-6.01 0.02-2.61 0.77-4.51 4.94-8.75l43.59 0.03 4-4.07c2.2-2.23 6.02-5.38 8.5-6.98 2.47-1.6 7.2-3.89 10.5-5.07 3.86-1.39 9.74-2.4 16.5-2.83 5.77-0.36 62.25-0.76 125.5-0.87zm-131 19.67c-3.3 0.96-7.58 2.58-9.5 3.6-1.93 1.02-5.79 4.14-8.59 6.94-2.8 2.79-6.24 7.33-7.64 10.08-1.4 2.75-3.28 7.47-4.17 10.5-1.35 4.59-1.62 11.02-1.61 39l0.01 33.5c129.04 1.16 184.95 1.49 207.5 1.47l41-0.02c3.31 3.53 4.55 5.56 4.89 6.8 0.33 1.24-0.07 3.82-0.89 5.75-0.82 1.93-2.4 3.95-3.5 4.5-1.3 0.65-45.25 1-125.75 1h-123.75l-0.5 10c31.39 0.39 82.19 0.5 133.14 0.5 91.26 0 92.67 0.03 94.78 2 1.18 1.1 2.4 3.57 2.71 5.5 0.3 1.93 0.07 4.62-0.52 6-0.59 1.37-2.21 3.06-3.59 3.75-1.92 0.95-15.23 1.25-56.02 1.25h-53.5c5.19 7.36 7.64 11.97 8.79 15 1.15 3.02 2.28 6.18 2.51 7 0.3 1.05 2.51 1.72 7.31 2.24 3.79 0.41 29.5 0.75 57.14 0.75 39.34 0.01 50.33-0.26 50.61-1.24 0.2-0.69 1.41-4.63 2.68-8.75q2.31-7.5 6.89-13.5c2.53-3.32 7.25-7.79 10.57-10.02 3.3-2.21 8.48-4.83 11.5-5.82 3.02-0.99 8.65-2.06 12.5-2.38 4.02-0.34 9.77-0.06 13.5 0.65 3.57 0.68 9.2 2.52 12.5 4.09 3.3 1.57 7.98 4.57 10.39 6.67 2.41 2.09 6.24 6.63 8.5 10.07l4.11 6.27 20.5-0.03c0-7.49-0.29-8-2.25-7.97-1.24 0.01-3.78-1-5.66-2.25-1.87-1.25-4.25-3.41-5.28-4.78-1.02-1.38-2.3-5.43-2.84-9-0.53-3.57-0.73-8.98-0.43-12 0.3-3.03 0.75-6.96 1-8.75 0.25-1.79 1.92-4.85 3.71-6.81 1.79-1.95 4.71-3.98 6.5-4.5 1.79-0.52 3.26-1.28 3.27-1.69 0.01-0.41-1.22-1.98-2.75-3.48-1.64-1.62-6.85-4.22-12.77-6.37-8.91-3.25-11.58-3.74-24.5-4.54-9.82-0.61-15.23-1.38-16.75-2.38-1.24-0.81-3.16-2.94-4.27-4.73-1.92-3.09-2.01-4.64-1.75-32.25l0.27-29c4.01-5.52 7.09-7.8 10.25-9.19 2.89-1.27 5.25-2.76 5.25-3.31 0-0.55-1.24-2.41-2.75-4.14-1.51-1.72-4.55-4.08-6.75-5.25l-4-2.11c-247.39-0.36-256.4-0.26-262 1.38zm322.79 124.87c-0.4 1.51-0.65 5-0.56 7.75 0.1 2.75 0.66 5.45 1.24 6 0.75 0.7 1.06-1.62 1.05-7.75-0.01-4.81-0.24-8.75-0.5-8.75-0.27 0-0.82 1.24-1.23 2.75zm-355.31 37.75c12.8 1.15 18.66 1.49 21.27 1.49 3.73 0.01 5.29 0.55 7.25 2.51 1.37 1.37 2.84 4.31 3.25 6.52 0.41 2.21 0.97 4.02 1.25 4.01 0.27 0 1.5-3.05 2.71-6.77 1.22-3.72 4.03-9.35 6.25-12.51l4.04-5.75h-46zm72.27 8.01c-3.07 1.8-4.97 3.95-6.84 7.74-2.06 4.2-2.45 6.05-1.9 9.25 0.38 2.2 1.64 5.35 2.81 7 1.17 1.65 3.04 3.78 4.15 4.74 1.12 0.96 4.05 2.36 6.53 3.11 3.92 1.18 5.06 1.15 8.93-0.25 2.72-0.98 5.73-3.15 7.77-5.6 1.84-2.2 3.61-5.57 3.94-7.5 0.33-1.93 0.32-5.07-0.02-7-0.34-1.93-1.86-5.02-3.37-6.88-1.52-1.85-4.33-4.22-6.25-5.25-1.93-1.03-5.3-1.87-7.5-1.86-2.44 0-5.66 0.98-8.25 2.5zm210.81-0.65c-1.88 1.02-4.47 3.27-5.75 5-1.27 1.73-2.6 4.38-2.95 5.89-0.35 1.51-0.36 4.55-0.02 6.75 0.34 2.2 1.75 5.69 3.13 7.75 1.39 2.06 4.33 4.65 6.53 5.75 2.2 1.1 5.35 2 7 2 1.65 0 4.46-0.6 6.25-1.34 1.78-0.74 4.71-2.99 6.5-5 1.78-2.01 3.74-5.35 4.34-7.41 0.79-2.72 0.79-4.92 0-8-0.64-2.5-2.54-5.69-4.59-7.75-1.93-1.93-4.63-3.95-6-4.5-1.38-0.55-4.42-1-6.75-1-2.34 0.01-5.8 0.84-7.69 1.86z"/>
		<path class="s0" d="m93.75 118.23c-3.85-1.17-6.93-4.15-8.17-7.94-0.5-1.54-0.54-4.08-0.47-26.79l0.1-25.08 0.97-2.01c1.27-2.54 3.52-4.79 6.06-6.06l2.01-0.97h22.43 22.43l1.94 0.97c2.38 1.21 4.69 3.62 5.86 6.16l0.9 1.91v25.61 25.61l-1.1 2.24c-1.34 2.71-3.72 4.99-6.29 5.93-1.77 0.67-2.41 0.7-23.84 0.67-12.09 0-22.37-0.13-22.83-0.27z"/>
		<path class="s0" d="m162.86 117.92c-2.24-0.8-4.72-2.68-6.06-4.69-2.14-3.15-2.14-3.05-2.04-30.07l0.1-24.41 1.07-2.24c1.27-2.71 3.42-4.89 6.06-6.19l1.91-0.94h23.1 23.1l1.91 0.94c2.41 1.17 4.99 3.98 6.03 6.53l0.77 1.91v25.45 25.45l-0.87 1.88c-1.24 2.65-3.01 4.45-5.59 5.73l-2.24 1.1-22.77 0.07c-21.13 0.07-22.9 0.03-24.48-0.5z"/>
		<path class="s0" d="m233.81 117.86c-4.08-1.47-6.93-4.82-7.8-9.21-0.27-1.44-0.33-8.84-0.27-25.95l0.1-23.94 1.07-2.24c1.31-2.75 3.55-5.06 6.06-6.23l1.91-0.9h22.94 22.94l1.91 0.94c3.75 1.84 6.33 5.42 7 9.74 0.2 1.21 0.3 11.79 0.23 25.48l-0.1 23.44-0.8 2.01c-1.14 2.91-4.15 5.83-7.06 6.8-2.11 0.74-2.44 0.74-24.24 0.74-20.83-0.03-22.23-0.07-23.87-0.67z"/>
		<path class="s0" d="m304.99 117.89c-3.78-1.21-6.36-3.78-7.7-7.6-0.64-1.77-0.64-2.91-0.57-26.85l0.1-25.01 1.07-2.24q1.86-3.97 5.73-5.86l1.91-0.94h23.1 23.1l2.24 1.1c2.65 1.31 4.32 3.08 5.76 6.06l1.04 2.21v25.11 25.11l-0.77 1.91c-1.07 2.68-3.31 5.02-6.03 6.36l-2.24 1.1-22.43 0.07c-20.83 0.07-22.57 0.03-24.31-0.54z"/>
	</g>
</svg>