<?xml version="1.0" standalone="no"?>
<!DOCTYPE svg PUBLIC "-//W3C//DTD SVG 20010904//EN"
 "http://www.w3.org/TR/2001/REC-SVG-20010904/DTD/svg10.dtd">
<svg version="1.0" xmlns="http://www.w3.org/2000/svg"
 width="512.000000pt" height="512.000000pt" viewBox="0 0 512.000000 512.000000"
 preserveAspectRatio="xMidYMid meet">

<g transform="translate(0.000000,512.000000) scale(0.100000,-0.100000)"
fill="#000000" stroke="none">
<path d="M670 4470 c-385 -169 -642 -288 -652 -301 -17 -20 -18 -124 -18
-1876 0 -1309 3 -1860 11 -1875 6 -11 26 -26 45 -34 43 -18 -7 -37 700 274
l571 252 1237 -269 c928 -202 1243 -267 1264 -261 29 8 1190 518 1241 544 17
9 35 25 41 35 7 13 10 620 10 1871 0 1251 -3 1858 -10 1871 -15 27 -67 51 -93
43 -12 -3 -293 -125 -623 -270 l-602 -264 -1218 265 c-671 146 -1230 267
-1244 270 -18 4 -206 -75 -660 -275z m1900 -175 c597 -130 1097 -239 1113
-242 l27 -5 0 -122 0 -122 -71 -12 c-201 -34 -416 -178 -536 -357 -40 -60 -95
-176 -108 -228 -4 -15 -11 -29 -15 -32 -5 -3 -90 13 -191 35 -100 22 -199 40
-219 40 -86 0 -120 -108 -48 -154 13 -8 100 -31 193 -51 271 -58 245 -47 245
-110 0 -114 47 -280 110 -389 16 -28 139 -202 273 -386 135 -184 243 -336 242
-338 -2 -2 -470 99 -1041 223 -572 124 -1060 231 -1086 236 l-48 11 0 520 c0
490 1 519 18 514 42 -13 576 -126 594 -126 11 0 33 13 49 29 48 48 34 115 -28
139 -15 6 -154 39 -308 72 -154 33 -290 62 -302 65 l-23 5 0 519 0 519 38 -9
c20 -4 525 -114 1122 -244z m-1342 -287 l-3 -512 -515 -228 c-283 -125 -518
-227 -523 -227 -4 -1 -6 229 -5 510 l3 512 515 227 c283 126 518 229 523 229
4 1 6 -229 5 -511z m3712 0 l0 -513 -172 -75 c-94 -41 -179 -78 -189 -82 -14
-6 -25 6 -55 59 -47 85 -167 210 -260 273 -86 57 -206 105 -304 122 l-71 12 3
129 3 129 520 228 c286 126 521 230 523 230 1 0 2 -231 2 -512z m-995 -393
c117 -25 226 -85 320 -179 141 -139 199 -278 199 -471 0 -123 -22 -219 -75
-312 -41 -74 -580 -815 -589 -811 -20 7 -578 789 -602 843 -44 98 -59 171 -59
280 0 119 17 191 70 300 131 267 437 413 736 350z m-2717 -826 l-3 -512 -519
-228 c-286 -126 -521 -229 -523 -229 -2 0 -2 230 -1 512 l3 512 515 227 c283
125 518 228 523 228 4 1 6 -229 5 -510z m3710 -1 l-3 -512 -425 -188 c-234
-103 -428 -187 -432 -187 -4 -1 92 135 213 302 120 166 237 336 258 377 75
143 104 294 90 466 -4 49 -9 95 -11 103 -2 9 47 36 147 81 83 38 153 69 158
69 4 1 6 -229 5 -511z m-2360 -932 c618 -135 1126 -246 1128 -249 2 -2 3 -235
2 -519 l-3 -514 -970 211 c-533 116 -1050 228 -1147 250 l-178 38 0 519 0 518
23 -5 c12 -3 528 -115 1145 -249z m-1350 -287 l-3 -511 -506 -222 c-278 -122
-513 -225 -522 -229 -16 -6 -17 30 -17 506 l0 512 518 227 c284 125 520 228
525 228 4 0 6 -230 5 -511z m3710 0 l-3 -512 -520 -228 c-286 -126 -521 -229
-522 -229 -2 0 -2 230 -1 512 l3 512 515 228 c283 125 518 227 523 227 4 1 6
-229 5 -510z"/>
<path d="M2252 3303 c-16 -6 -42 -56 -42 -82 0 -11 12 -33 26 -50 33 -39 80
-42 120 -7 58 50 21 147 -55 145 -20 0 -42 -3 -49 -6z"/>
<path d="M3722 3369 c-191 -37 -332 -209 -332 -404 0 -204 143 -370 351 -407
217 -38 438 127 469 349 38 280 -212 517 -488 462z m173 -188 c88 -39 139
-120 139 -216 0 -204 -233 -310 -387 -175 -103 91 -106 252 -5 348 64 61 173
80 253 43z"/>
</g>
</svg>
